<?xml version="1.0" encoding="utf-8"?>
<!-- Generator: Adobe Illustrator 23.0.2, SVG Export Plug-In . SVG Version: 6.00 Build 0)  -->
<svg version="1.1" id="レイヤー_1" xmlns="http://www.w3.org/2000/svg" xmlns:xlink="http://www.w3.org/1999/xlink" x="0px"
	 y="0px" width="40px" height="40px" viewBox="0 0 40 40" style="enable-background:new 0 0 40 40;" xml:space="preserve">
<style type="text/css">
	.st0{fill:#FFFFFF;}
</style>
<circle class="st0" cx="20" cy="20" r="20"/>
<path d="M20,1c10.5,0,19,8.5,19,19s-8.5,19-19,19S1,30.5,1,20S9.5,1,20,1"/>
<path class="st0" d="M28.3,16l-6.9-6.8V9c-0.6-0.5-1.4-0.6-2.1-0.3l-0.2,0.1c-0.3,0.2-0.5,0.3-0.7,0.5l-6.6,6.3
	c-0.3,0.3-0.5,0.6-0.5,1c0,0.3,0.1,0.6,0.3,0.8c0.4,0.5,1.1,0.6,1.8,0.3l0.2-0.1c0.2-0.1,0.4-0.3,0.6-0.4l3.9-3V30l0.1,0.2
	c0.1,0.4,0.6,1.2,1.9,1.2c0.9,0,1.5-0.4,1.8-1.1l0.1-0.2V14.3l4.4,3.4c0.5,0.4,1.1,0.5,1.6,0.3h0.1c0.5-0.2,0.7-0.7,0.7-0.9
	C28.7,16.9,28.7,16.4,28.3,16z"/>
</svg>
